<svg width="125" height="125" viewBox="0 0 125 125" fill="none" xmlns="http://www.w3.org/2000/svg">
<path d="M94.3957 21.2265C94.4143 21.3002 94.4569 21.3656 94.5169 21.4123C94.5768 21.459 94.6506 21.4844 94.7266 21.4844C94.8026 21.4844 94.8764 21.459 94.9364 21.4123C94.9963 21.3656 95.039 21.3002 95.0575 21.2265C96.0801 17.164 97.2422 16.0019 101.305 14.9793C101.378 14.9607 101.444 14.9181 101.49 14.8581C101.537 14.7982 101.563 14.7244 101.563 14.6484C101.563 14.5724 101.537 14.4986 101.49 14.4387C101.444 14.3787 101.378 14.3361 101.305 14.3175C97.2422 13.2949 96.0801 12.1328 95.0575 8.07029C95.039 7.9966 94.9963 7.93122 94.9364 7.88451C94.8764 7.8378 94.8026 7.81244 94.7266 7.81244C94.6506 7.81244 94.5768 7.8378 94.5169 7.88451C94.4569 7.93122 94.4143 7.9966 94.3957 8.07029C93.3731 12.1328 92.211 13.2949 88.1485 14.3175C88.0748 14.3361 88.0094 14.3787 87.9627 14.4386C87.916 14.4986 87.8906 14.5724 87.8906 14.6484C87.8906 14.7243 87.916 14.7982 87.9627 14.8581C88.0094 14.918 88.0748 14.9607 88.1485 14.9792C92.211 16.0018 93.3731 17.164 94.3957 21.2265Z" fill="#2B77C0"/>
<path d="M87.574 68.3594H37.426C35.7886 68.3613 34.2189 69.0127 33.0611 70.1705C31.9033 71.3283 31.252 72.898 31.25 74.5354V112.965C31.252 114.602 31.9033 116.172 33.0611 117.33C34.2189 118.487 35.7886 119.139 37.426 119.141H87.574C89.2114 119.139 90.7811 118.487 91.9389 117.33C93.0967 116.172 93.748 114.602 93.75 112.965V74.5354C93.748 72.898 93.0967 71.3283 91.9389 70.1705C90.7811 69.0127 89.2114 68.3613 87.574 68.3594ZM89.8438 84.0151V112.965C89.843 113.566 89.6036 114.143 89.1781 114.569C88.7526 114.994 88.1757 115.234 87.574 115.234H37.426C36.8243 115.234 36.2474 114.994 35.8219 114.569C35.3964 114.143 35.157 113.566 35.1562 112.965V74.5354C35.157 73.9336 35.3964 73.3568 35.8219 72.9313C36.2474 72.5058 36.8243 72.2664 37.426 72.2656H87.574C88.1757 72.2664 88.7526 72.5058 89.1781 72.9313C89.6036 73.3568 89.843 73.9336 89.8438 74.5354V84.0151Z" fill="#2B77C0"/>
<path d="M105.469 34.1797C105.459 30.1268 104.474 26.1358 102.596 22.5439L99.1211 24.331C100.714 27.3703 101.551 30.7484 101.562 34.1797C101.562 49.7951 84.0397 62.5 62.5 62.5C40.9603 62.5 23.4375 49.7951 23.4375 34.1797C23.4375 18.5642 40.9603 5.85935 62.5 5.85935C70.3208 5.78707 78.047 7.57268 85.043 11.0693L86.832 7.59599C79.2824 3.81529 70.943 1.88128 62.5 1.9531C38.8069 1.9531 19.5312 16.4099 19.5312 34.1797C19.5312 51.9495 38.8069 66.4062 62.5 66.4062C86.1931 66.4062 105.469 51.9495 105.469 34.1797Z" fill="#2B77C0"/>
<path d="M29.2969 105.469C29.2969 103.397 28.4738 101.41 27.0086 99.9445C25.5435 98.4794 23.5564 97.6563 21.4844 97.6563H21.4239C23.0783 96.4353 24.3051 94.7234 24.9295 92.7644C25.5539 90.8054 25.5441 88.6994 24.9014 86.7463C24.2588 84.7932 23.0161 83.0928 21.3504 81.8874C19.6847 80.6819 17.6811 80.033 15.625 80.033C13.5689 80.033 11.5653 80.6819 9.8996 81.8874C8.23394 83.0928 6.99123 84.7932 6.34857 86.7463C5.70591 88.6994 5.69609 90.8054 6.3205 92.7644C6.94491 94.7234 8.17171 96.4353 9.82605 97.6563H9.76562C5.45084 97.6563 1.95312 101.154 1.95312 109.375V123.047H29.2969V105.469ZM15.625 117.188L11.7188 111.328L15.0826 99.5545C15.2658 99.5648 15.4393 99.6094 15.625 99.6094C15.8107 99.6094 15.9842 99.5648 16.1674 99.5545L19.5312 111.328L15.625 117.188ZM15.625 95.7031C14.0715 95.7014 12.5821 95.0836 11.4837 93.9851C10.3852 92.8866 9.76732 91.3972 9.76562 89.8438C9.77221 89.1769 9.89397 88.5161 10.1255 87.8906H21.1245C21.356 88.5161 21.4778 89.1769 21.4844 89.8438C21.4827 91.3972 20.8648 92.8866 19.7663 93.9851C18.6679 95.0836 17.1785 95.7014 15.625 95.7031Z" fill="#2B77C0"/>
<path d="M115.234 97.6563H115.174C116.828 96.4353 118.055 94.7234 118.68 92.7644C119.304 90.8054 119.294 88.6994 118.651 86.7463C118.009 84.7932 116.766 83.0928 115.1 81.8874C113.435 80.6819 111.431 80.033 109.375 80.033C107.319 80.033 105.315 80.6819 103.65 81.8874C101.984 83.0928 100.741 84.7932 100.099 86.7463C99.4559 88.6994 99.4461 90.8054 100.07 92.7644C100.695 94.7234 101.922 96.4353 103.576 97.6563H103.516C99.2008 97.6563 95.7031 101.154 95.7031 109.375V123.047H123.047V105.469C123.047 103.397 122.224 101.41 120.759 99.9445C119.294 98.4794 117.306 97.6563 115.234 97.6563ZM109.375 117.188L105.469 111.328L108.833 99.5545C109.016 99.5648 109.189 99.6094 109.375 99.6094C109.561 99.6094 109.734 99.5648 109.917 99.5545L113.281 111.328L109.375 117.188ZM109.375 95.7031C107.822 95.7014 106.332 95.0836 105.234 93.9851C104.135 92.8866 103.517 91.3972 103.516 89.8438C103.522 89.1769 103.644 88.5161 103.876 87.8906H114.874C115.106 88.5161 115.228 89.1769 115.234 89.8438C115.233 91.3972 114.615 92.8866 113.516 93.9851C112.418 95.0836 110.928 95.7014 109.375 95.7031Z" fill="#2B77C0"/>
<path d="M47.4515 97.9121C47.9025 97.3147 48.4715 96.8164 49.1231 96.4481C49.7748 96.0798 50.4952 95.8493 51.2396 95.7711C51.9739 95.6936 52.7163 95.7681 53.4206 95.9899C54.1249 96.2117 54.776 96.5762 55.3334 97.0605L64.8939 104.452C64.92 104.471 64.9442 104.491 64.9684 104.512C66.09 105.503 66.7963 106.88 66.9459 108.369C67.0955 109.858 66.6774 111.349 65.7752 112.543C65.7196 112.615 65.6488 112.669 65.5911 112.739C66.692 113.17 67.8972 113.26 69.0498 112.997C70.2025 112.734 71.2493 112.13 72.054 111.264L78.4134 104.419C78.8634 103.591 79.0052 102.629 78.8137 101.706C78.6222 100.782 78.1097 99.9562 77.3672 99.3746L67.2337 90.7605L66.6229 91.2446C65.8184 91.8884 64.8192 92.2398 63.7889 92.2415C63.5719 92.2416 63.3552 92.226 63.1405 92.1949C62.5145 92.1055 61.9135 91.8884 61.375 91.5569C60.8365 91.2255 60.3718 90.7868 60.01 90.2682C59.4274 89.4384 59.1124 88.4503 59.1072 87.4363C59.102 86.4224 59.4069 85.4311 59.981 84.5954L56.9955 82.0576C56.7413 81.8415 56.4349 81.6959 56.1068 81.6352C55.7788 81.5744 55.4405 81.6008 55.1258 81.7117L51.7012 82.9178C51.3919 83.0268 51.0602 83.0561 50.7366 83.0031C50.413 82.95 50.108 82.8164 49.8496 82.6144L43.5369 77.6805L35.1562 87.7057L47.2864 98.1784C47.3471 98.0922 47.3869 97.9964 47.4515 97.9121Z" fill="#2B77C0"/>
<path d="M54.0918 98.5098C53.7258 98.1924 53.2982 97.9541 52.8358 97.8099C52.3734 97.6657 51.8862 97.6186 51.4047 97.6716C50.9232 97.7247 50.4579 97.8767 50.038 98.1181C49.618 98.3596 49.2526 98.6852 48.9645 99.0746C48.0484 100.28 47.622 101.788 47.7707 103.295C47.9194 104.802 48.6322 106.197 49.7663 107.201L56.5718 112.227C57.1207 112.703 57.7621 113.06 58.4557 113.276C59.1494 113.493 59.8802 113.563 60.6024 113.484C61.3247 113.404 62.0226 113.176 62.6525 112.814C63.2824 112.452 63.8306 111.963 64.2627 111.379C64.8734 110.575 65.1577 109.57 65.0586 108.566C64.9594 107.561 64.4842 106.631 63.7282 105.962L54.0918 98.5098Z" fill="#2B77C0"/>
<path d="M75.5295 78.0684C74.9769 78.6381 74.3558 79.1371 73.6805 79.5542C70.9495 80.6554 67.951 79.1229 65.7355 81.297C64.3971 82.6103 63.1186 83.9909 61.812 85.3361C61.3206 85.855 61.0276 86.5303 60.9841 87.2436C60.9407 87.9569 61.1497 88.6627 61.5744 89.2374C61.7884 89.5364 62.0619 89.7879 62.3777 89.9762C62.6935 90.1645 63.0448 90.2856 63.4095 90.3318C63.7743 90.378 64.1447 90.3484 64.4974 90.2448C64.8502 90.1412 65.1778 89.9659 65.4597 89.7298L68.0231 88.3419L77.7924 96.9088L89.8439 84.0151L80.351 74.2188C80.2861 74.227 75.8782 77.7892 75.5295 78.0684Z" fill="#2B77C0"/>
<path d="M50.7812 51.7578V26.3672L37.1094 30.2734V51.7578H50.7812ZM41.0156 35.1562H46.875V38.0859H41.0156V35.1562ZM41.0156 42.9688H46.875V45.8984H41.0156V42.9688Z" fill="#2B77C0"/>
<path d="M74.2188 51.7578H87.8906V30.2734L74.2188 26.3672V51.7578ZM78.125 35.1562H83.9844V38.0859H78.125V35.1562ZM78.125 42.9688H83.9844V45.8984H78.125V42.9688Z" fill="#2B77C0"/>
<path d="M72.2656 51.7578V16.6016L68.3594 14.6484L62.5 8.78906L56.6406 14.6484L52.7344 16.6016V51.7578H58.5938V43.9453H66.4062V51.7578H72.2656ZM57.6172 20.9961H67.3828V23.9258H57.6172V20.9961ZM57.6172 28.8086H67.3828V31.7383H57.6172V28.8086ZM57.6172 39.5508V36.6211H67.3828V39.5508H57.6172Z" fill="#2B77C0"/>
</svg>
