<svg width="125" height="125" viewBox="0 0 125 125" fill="none" xmlns="http://www.w3.org/2000/svg">
<path d="M82.9043 67.5586L81.6543 66.8692C81.2941 66.6822 80.9994 66.3899 80.8096 66.0311C80.6197 65.6724 80.5438 65.2643 80.5918 64.8613C80.8184 63.2953 80.8184 61.7048 80.5918 60.1387C80.5438 59.7357 80.6197 59.3276 80.8096 58.9689C80.9994 58.6102 81.2941 58.3178 81.6543 58.1309L82.9043 57.4414C83.1461 57.3132 83.3592 57.137 83.5307 56.9236C83.7021 56.7102 83.8282 56.4641 83.9013 56.2003C83.9745 55.9366 83.993 55.6607 83.9559 55.3895C83.9188 55.1183 83.8268 54.8575 83.6855 54.6231L80.2344 48.8926C79.9326 48.4135 79.4586 48.0682 78.91 47.928C78.3614 47.7877 77.7799 47.8631 77.2852 48.1387L76.0215 48.8281C75.6355 49.0331 75.1991 49.1236 74.7635 49.089C74.3279 49.0544 73.9113 48.8961 73.5625 48.6328C72.3176 47.7206 70.9633 46.968 69.5312 46.3926C69.1296 46.2496 68.7805 45.9887 68.5296 45.6441C68.2787 45.2994 68.1377 44.8871 68.125 44.461V43.0781C68.1184 42.8006 68.0572 42.5271 67.9449 42.2732C67.8325 42.0193 67.6713 41.79 67.4703 41.5985C67.2693 41.407 67.0326 41.2569 66.7736 41.1569C66.5146 41.0569 66.2385 41.0089 65.9609 41.0156H59.0391C58.4795 41.0036 57.9381 41.214 57.5335 41.6006C57.1289 41.9873 56.8942 42.5186 56.8809 43.0781V44.461C56.8682 44.8871 56.7272 45.2994 56.4763 45.6441C56.2253 45.9887 55.8762 46.2496 55.4746 46.3926C54.0405 46.9676 52.6842 47.7202 51.4375 48.6328C51.0888 48.8961 50.6721 49.0544 50.2365 49.089C49.8009 49.1236 49.3645 49.0331 48.9785 48.8281L47.7148 48.1309C47.2201 47.8553 46.6386 47.7799 46.09 47.9202C45.5414 48.0604 45.0674 48.4056 44.7656 48.8848L41.3047 54.6152C41.1638 54.8503 41.0723 55.1116 41.0359 55.3832C40.9995 55.6548 41.0189 55.931 41.093 56.1949C41.167 56.4587 41.2942 56.7047 41.4666 56.9177C41.639 57.1307 41.8531 57.3062 42.0957 57.4336L43.3457 58.1231C43.7059 58.31 44.0006 58.6024 44.1904 58.9611C44.3802 59.3198 44.4562 59.7279 44.4082 60.1309C44.1816 61.6969 44.1816 63.2875 44.4082 64.8535C44.4562 65.2565 44.3802 65.6646 44.1904 66.0233C44.0006 66.382 43.7059 66.6744 43.3457 66.8613L42.0957 67.5508C41.8531 67.6782 41.639 67.8538 41.4666 68.0668C41.2942 68.2798 41.167 68.5257 41.093 68.7895C41.0189 69.0534 40.9995 69.3296 41.0359 69.6012C41.0723 69.8728 41.1638 70.1341 41.3047 70.3692L44.7656 76.0996C45.0674 76.5788 45.5414 76.924 46.09 77.0642C46.6386 77.2045 47.2201 77.1291 47.7148 76.8535L48.9785 76.1719C49.3645 75.967 49.8009 75.8765 50.2365 75.9111C50.6721 75.9457 51.0888 76.1039 51.4375 76.3672C52.6824 77.2794 54.0367 78.032 55.4688 78.6074C55.8704 78.7504 56.2195 79.0113 56.4704 79.3559C56.7213 79.7006 56.8623 80.113 56.875 80.5391V81.9219C56.8816 82.1994 56.9428 82.473 57.0551 82.7268C57.1675 82.9807 57.3287 83.21 57.5297 83.4015C57.7307 83.5931 57.9674 83.7431 58.2264 83.8431C58.4854 83.9431 58.7615 83.9911 59.0391 83.9844H65.9609C66.5205 83.9964 67.0619 83.7861 67.4665 83.3994C67.8711 83.0128 68.1058 82.4814 68.1191 81.9219V80.5391C68.1318 80.113 68.2728 79.7006 68.5237 79.3559C68.7747 79.0113 69.1238 78.7504 69.5254 78.6074C70.9595 78.0324 72.3158 77.2798 73.5625 76.3672C73.9113 76.1039 74.3279 75.9457 74.7635 75.9111C75.1991 75.8765 75.6355 75.967 76.0215 76.1719L77.2852 76.8692C77.7799 77.1447 78.3614 77.2201 78.91 77.0799C79.4586 76.9396 79.9326 76.5944 80.2344 76.1153L83.6953 70.3848C83.8375 70.1494 83.93 69.8875 83.9671 69.615C84.0042 69.3426 83.9851 69.0654 83.911 68.8006C83.8369 68.5358 83.7093 68.289 83.5362 68.0754C83.363 67.8618 83.148 67.6859 82.9043 67.5586ZM62.5 71.2891C60.7617 71.2891 59.0624 70.7736 57.6171 69.8078C56.1717 68.8421 55.0452 67.4694 54.38 65.8634C53.7147 64.2575 53.5407 62.4903 53.8798 60.7854C54.2189 59.0804 55.056 57.5144 56.2852 56.2852C57.5144 55.056 59.0804 54.219 60.7853 53.8798C62.4902 53.5407 64.2574 53.7148 65.8634 54.38C67.4694 55.0452 68.8421 56.1717 69.8078 57.6171C70.7736 59.0624 71.2891 60.7617 71.2891 62.5C71.2891 64.831 70.3631 67.0666 68.7148 68.7148C67.0665 70.3631 64.831 71.2891 62.5 71.2891Z" fill="#2B77C0"/>
<path d="M20.5078 109.375C23.7439 109.375 26.3672 106.752 26.3672 103.516C26.3672 100.28 23.7439 97.6562 20.5078 97.6562C17.2718 97.6562 14.6484 100.28 14.6484 103.516C14.6484 106.752 17.2718 109.375 20.5078 109.375Z" fill="#2B77C0"/>
<path d="M104.492 27.3438C107.728 27.3438 110.352 24.7204 110.352 21.4844C110.352 18.2483 107.728 15.625 104.492 15.625C101.256 15.625 98.6328 18.2483 98.6328 21.4844C98.6328 24.7204 101.256 27.3438 104.492 27.3438Z" fill="#2B77C0"/>
<path d="M34.1797 39.0625C37.4157 39.0625 40.0391 36.4392 40.0391 33.2031C40.0391 29.9671 37.4157 27.3438 34.1797 27.3438C30.9436 27.3438 28.3203 29.9671 28.3203 33.2031C28.3203 36.4392 30.9436 39.0625 34.1797 39.0625Z" fill="#2B77C0"/>
<path d="M90.8203 97.6562C94.0564 97.6562 96.6797 95.0329 96.6797 91.7969C96.6797 88.5608 94.0564 85.9375 90.8203 85.9375C87.5843 85.9375 84.9609 88.5608 84.9609 91.7969C84.9609 95.0329 87.5843 97.6562 90.8203 97.6562Z" fill="#2B77C0"/>
<path d="M75.0784 77.8731L76.342 78.5723C77.2802 79.086 78.3793 79.2213 79.414 78.9503C80.4487 78.6794 81.3405 78.0228 81.9065 77.1153L85.3674 71.3887C85.6442 70.9353 85.8255 70.4302 85.9004 69.9043C85.9753 69.3784 85.9422 68.8427 85.803 68.3301C85.6631 67.8054 85.4178 67.3146 85.082 66.8878C84.7462 66.461 84.3269 66.1071 83.8498 65.8477L82.5256 65.1407C82.6518 64.2661 82.7151 63.3836 82.7151 62.5C82.7151 61.625 82.6506 60.7422 82.5979 59.8418L83.8498 59.1504C84.3269 58.8915 84.7462 58.5379 85.082 58.1115C85.4179 57.685 85.6632 57.1945 85.803 56.6699C85.9419 56.1576 85.9749 55.6223 85.9 55.0968C85.8251 54.5712 85.6439 54.0665 85.3674 53.6133L81.9065 47.8828C81.3396 46.9763 80.4476 46.3208 79.4132 46.0503C78.3788 45.7798 77.2802 45.9148 76.342 46.4278L75.0803 47.125C75.0192 47.1466 74.9536 47.1519 74.8898 47.1402C74.8261 47.1286 74.7665 47.1004 74.717 47.0586C73.3379 46.0479 71.8372 45.2146 70.2502 44.5782C70.1824 44.554 70.1215 44.5138 70.0725 44.461V43.0801C70.0586 42.0026 69.618 40.9746 68.8473 40.2215C68.0766 39.4684 67.0387 39.0516 65.9612 39.0625H59.0393C57.9618 39.0516 56.9239 39.4684 56.1532 40.2215C55.3825 40.9746 54.9419 42.0026 54.928 43.0801V44.4473C54.8826 44.5101 54.8182 44.5567 54.7444 44.5801C53.1571 45.2158 51.6563 46.0492 50.2776 47.0606C50.2288 47.1022 50.1699 47.1303 50.1068 47.142C50.0437 47.1536 49.9787 47.1484 49.9182 47.127L48.6545 46.4278C47.7163 45.9145 46.6173 45.7795 45.5827 46.0504C44.5482 46.3213 43.6564 46.9776 43.0901 47.8848L39.6291 53.6114C39.3524 54.0648 39.171 54.5699 39.0961 55.0958C39.0213 55.6217 39.0544 56.1573 39.1936 56.6699C39.3335 57.1947 39.5788 57.6854 39.9146 58.1122C40.2504 58.539 40.6696 58.8929 41.1467 59.1524L42.4709 59.8594C42.3461 60.734 42.2841 61.6165 42.2854 62.5C42.2854 63.375 42.3498 64.2578 42.4026 65.1582L41.1506 65.8496C40.6735 66.1086 40.2543 66.4621 39.9184 66.8886C39.5826 67.3151 39.3373 67.8056 39.1975 68.3301C39.0586 68.8425 39.0256 69.3777 39.1005 69.9033C39.1753 70.4288 39.3566 70.9336 39.633 71.3867L43.094 77.1172C43.6606 78.0241 44.5525 78.68 45.5871 78.9505C46.6216 79.221 47.7204 79.0857 48.6584 78.5723L49.9202 77.875C49.9811 77.8522 50.047 77.8463 50.111 77.858C50.175 77.8697 50.2346 77.8985 50.2834 77.9414C51.6626 78.9521 53.1633 79.7855 54.7502 80.4219C54.8181 80.4461 54.879 80.4863 54.928 80.5391V81.9199C54.9419 82.9974 55.3825 84.0254 56.1532 84.7786C56.9239 85.5317 57.9618 85.9485 59.0393 85.9375H65.9612C67.0387 85.9485 68.0766 85.5317 68.8473 84.7786C69.618 84.0254 70.0586 82.9974 70.0725 81.9199V80.5528C70.1179 80.4899 70.1822 80.4434 70.2561 80.4199C71.8434 79.7842 73.3442 78.9508 74.7229 77.9395C74.7713 77.8985 74.8295 77.8708 74.8918 77.8592C74.9542 77.8475 75.0184 77.8523 75.0784 77.8731ZM72.4104 74.791C71.2963 75.6065 70.0844 76.2791 68.803 76.793C68.038 77.0802 67.3772 77.5912 66.9069 78.2594C66.4366 78.9276 66.1785 79.722 66.1663 80.5391V81.9199C66.1663 81.9531 66.094 82.0313 65.9612 82.0313H59.0393C58.9065 82.0313 58.8342 81.9531 58.8342 81.9199V80.5391C58.8222 79.7228 58.5646 78.929 58.095 78.2612C57.6254 77.5933 56.9655 77.0824 56.2014 76.7949C54.9195 76.2808 53.7069 75.6082 52.592 74.793C51.8491 74.2452 50.9506 73.9489 50.0276 73.9473C49.3305 73.9444 48.6442 74.1191 48.0334 74.4551L46.7698 75.1543C46.716 75.1833 46.6542 75.1935 46.594 75.1832C46.5338 75.1729 46.4788 75.1428 46.4377 75.0977L43.0373 69.2696L44.2932 68.5781C45.0024 68.2015 45.5791 67.6165 45.9454 66.902C46.3118 66.1874 46.4502 65.3777 46.342 64.5821C46.1415 63.2006 46.1415 61.7975 46.342 60.416C46.45 59.6197 46.3108 58.8094 45.9433 58.0948C45.5759 57.3801 44.9978 56.7955 44.2873 56.4199L42.9768 55.6387L46.4377 49.9121C46.4777 49.8655 46.5327 49.8341 46.5933 49.8234C46.6538 49.8127 46.7162 49.8234 46.7698 49.8535L48.0354 50.5547C48.7486 50.9357 49.5554 51.1062 50.3617 51.0463C51.1681 50.9865 51.9409 50.6988 52.5901 50.2168C53.7042 49.4013 54.9161 48.7288 56.1975 48.2149C56.9625 47.9277 57.6232 47.4167 58.0936 46.7484C58.5639 46.0802 58.822 45.2858 58.8342 44.4688V43.0879C58.8342 43.0547 58.9065 42.9766 59.0393 42.9766H65.9612C66.094 42.9766 66.1663 43.0547 66.1663 43.0879V44.4688C66.1783 45.2851 66.4359 46.0789 66.9055 46.7467C67.3751 47.4145 68.0349 47.9254 68.7991 48.2129C70.081 48.7271 71.2935 49.3996 72.4084 50.2149C73.0569 50.7001 73.8307 50.9897 74.6384 51.0496C75.4461 51.1095 76.2541 50.9371 76.967 50.5528L78.2307 49.8535C78.2845 49.8249 78.3463 49.8149 78.4064 49.8252C78.4665 49.8354 78.5215 49.8653 78.5627 49.9102L81.9631 55.7383L80.7073 56.4297C79.9981 56.8063 79.4214 57.3913 79.055 58.1059C78.6887 58.8204 78.5503 59.6301 78.6584 60.4258C78.859 61.8072 78.859 63.2104 78.6584 64.5918C78.5505 65.3882 78.6897 66.1984 79.0571 66.9131C79.4246 67.6278 80.0027 68.2124 80.7131 68.5879L82.0237 69.3692L78.5627 75.0957C78.5225 75.1421 78.4676 75.1732 78.4071 75.1839C78.3467 75.1946 78.2844 75.1841 78.2307 75.1543L76.9651 74.4531C76.2523 74.0708 75.4452 73.8995 74.6386 73.9594C73.8319 74.0192 73.059 74.3077 72.4104 74.791Z" fill="#2B77C0"/>
<path d="M62.5 51.7578C60.3754 51.7578 58.2985 52.3878 56.532 53.5682C54.7654 54.7486 53.3886 56.4263 52.5755 58.3891C51.7625 60.352 51.5497 62.5119 51.9642 64.5957C52.3787 66.6795 53.4018 68.5936 54.9041 70.0959C56.4065 71.5982 58.3205 72.6213 60.4043 73.0358C62.4881 73.4503 64.648 73.2375 66.6109 72.4245C68.5737 71.6114 70.2514 70.2346 71.4318 68.468C72.6122 66.7015 73.2422 64.6246 73.2422 62.5C73.2391 59.6519 72.1063 56.9214 70.0925 54.9076C68.0786 52.8937 65.3481 51.7609 62.5 51.7578ZM62.5 69.3359C61.148 69.3359 59.8263 68.935 58.7022 68.1839C57.578 67.4327 56.7018 66.3651 56.1844 65.116C55.667 63.8669 55.5317 62.4924 55.7954 61.1664C56.0592 59.8403 56.7102 58.6223 57.6663 57.6663C58.6223 56.7102 59.8403 56.0592 61.1664 55.7954C62.4924 55.5316 63.8669 55.667 65.116 56.1844C66.3651 56.7018 67.4327 57.578 68.1839 58.7022C68.935 59.8263 69.3359 61.148 69.3359 62.5C69.3359 64.313 68.6157 66.0517 67.3337 67.3337C66.0518 68.6157 64.313 69.3359 62.5 69.3359Z" fill="#2B77C0"/>
<path d="M12.6951 103.516C12.6951 105.061 13.1533 106.571 14.0117 107.856C14.8702 109.141 16.0903 110.142 17.5179 110.733C18.9454 111.325 20.5163 111.479 22.0317 111.178C23.5472 110.877 24.9393 110.132 26.0319 109.04C27.1245 107.947 27.8685 106.555 28.17 105.04C28.4714 103.524 28.3167 101.953 27.7254 100.526C27.1341 99.0983 26.1327 97.8782 24.848 97.0197C23.5632 96.1613 22.0528 95.7031 20.5076 95.7031C19.3745 95.7083 18.2563 95.9623 17.2322 96.4472C9.81937 86.6857 5.823 74.757 5.85915 62.5C5.86263 53.0962 8.20654 43.8411 12.6795 35.5692C17.1525 27.2973 23.6139 20.2688 31.4812 15.1173C39.3484 9.96576 48.3741 6.85331 57.7445 6.06054C67.1148 5.26777 76.5351 6.81961 85.156 10.5761L86.7185 6.99802C77.5033 2.98159 67.4334 1.32199 57.4167 2.16889C47.4 3.01579 37.7516 6.34255 29.3416 11.8492C20.9316 17.3558 14.0244 24.8691 9.243 33.7116C4.46156 42.554 1.95622 52.4476 1.9529 62.5C1.91352 75.6627 6.22416 88.4697 14.2146 98.9297C13.2312 100.257 12.6987 101.864 12.6951 103.516ZM20.5076 99.6094C21.2802 99.6094 22.0354 99.8384 22.6778 100.268C23.3202 100.697 23.8208 101.307 24.1165 102.021C24.4122 102.735 24.4895 103.52 24.3388 104.278C24.1881 105.035 23.816 105.731 23.2697 106.278C22.7234 106.824 22.0274 107.196 21.2697 107.347C20.5119 107.498 19.7265 107.42 19.0127 107.125C18.299 106.829 17.6889 106.328 17.2597 105.686C16.8304 105.043 16.6013 104.288 16.6013 103.516C16.6013 102.48 17.0129 101.486 17.7455 100.753C18.478 100.021 19.4716 99.6094 20.5076 99.6094Z" fill="#2B77C0"/>
<path d="M112.305 21.4844C112.305 19.9392 111.846 18.4287 110.988 17.144C110.13 15.8592 108.909 14.8579 107.482 14.2666C106.054 13.6753 104.484 13.5205 102.968 13.822C101.453 14.1234 100.061 14.8675 98.9679 15.9601C97.8753 17.0527 97.1313 18.4448 96.8298 19.9602C96.5284 21.4757 96.6831 23.0465 97.2744 24.4741C97.8657 25.9016 98.867 27.1218 100.152 27.9802C101.437 28.8387 102.947 29.2969 104.492 29.2969C105.625 29.2917 106.743 29.0377 107.768 28.5527C115.18 38.3142 119.177 50.2429 119.141 62.5C119.137 71.9038 116.793 81.1589 112.32 89.4308C107.847 97.7027 101.386 104.731 93.5186 109.883C85.6513 115.034 76.6256 118.147 67.2553 118.939C57.885 119.732 48.4647 118.18 39.8437 114.424L38.2812 118.002C47.4964 122.018 57.5664 123.678 67.5831 122.831C77.5998 121.984 87.2482 118.657 95.6582 113.151C104.068 107.644 110.975 100.131 115.757 91.2884C120.538 82.446 123.044 72.5524 123.047 62.5C123.086 49.3373 118.776 36.5303 110.785 26.0703C111.769 24.7433 112.301 23.1361 112.305 21.4844ZM104.492 25.3906C103.72 25.3906 102.964 25.1615 102.322 24.7323C101.68 24.3031 101.179 23.693 100.883 22.9792C100.588 22.2655 100.51 21.48 100.661 20.7223C100.812 19.9646 101.184 19.2685 101.73 18.7222C102.276 18.1759 102.972 17.8039 103.73 17.6532C104.488 17.5025 105.273 17.5798 105.987 17.8755C106.701 18.1711 107.311 18.6718 107.74 19.3142C108.169 19.9566 108.398 20.7118 108.398 21.4844C108.398 22.5204 107.987 23.514 107.254 24.2465C106.522 24.9791 105.528 25.3906 104.492 25.3906Z" fill="#2B77C0"/>
<path d="M62.5 19.5313C59.0538 19.5295 55.6199 19.9407 52.2715 20.7559L53.1973 24.5508C58.9485 23.1483 64.9431 23.07 70.729 24.3217C76.5149 25.5735 81.941 28.1226 86.5983 31.7768C91.2555 35.4311 95.0223 40.0951 97.6144 45.4171C100.207 50.7391 101.557 56.5803 101.563 62.5C101.583 70.5315 99.0961 78.3692 94.4492 84.9199C93.3347 84.315 92.0884 83.9937 90.8203 83.9844C89.0724 83.9758 87.3716 84.5506 85.9874 85.6179C84.6032 86.6852 83.6147 88.1838 83.1784 89.8764C82.7422 91.569 82.8833 93.3588 83.5793 94.9622C84.2753 96.5655 85.4864 97.8908 87.0207 98.7281C88.555 99.5653 90.3249 99.8666 92.0498 99.5843C93.7748 99.302 95.3562 98.4521 96.5436 97.1694C97.7309 95.8867 98.4563 94.2444 98.6048 92.5028C98.7533 90.7612 98.3163 89.0199 97.3633 87.5547C102.653 80.2735 105.491 71.4996 105.469 62.5C105.456 51.108 100.925 40.1862 92.8692 32.1308C84.8138 24.0754 73.8921 19.5442 62.5 19.5313ZM90.8203 95.7031C90.0477 95.7031 89.2925 95.474 88.6501 95.0448C88.0077 94.6156 87.5071 94.0055 87.2114 93.2917C86.9158 92.578 86.8384 91.7925 86.9891 91.0348C87.1398 90.2771 87.5119 89.581 88.0582 89.0347C88.6045 88.4884 89.3005 88.1164 90.0582 87.9657C90.816 87.815 91.6014 87.8923 92.3152 88.188C93.0289 88.4836 93.639 88.9843 94.0682 89.6267C94.4975 90.2691 94.7266 91.0243 94.7266 91.7969C94.7266 92.8329 94.315 93.8265 93.5825 94.559C92.8499 95.2916 91.8563 95.7031 90.8203 95.7031Z" fill="#2B77C0"/>
<path d="M62.5001 105.469C65.9463 105.47 69.3803 105.059 72.7286 104.244L71.8029 100.449C66.0516 101.852 60.0571 101.93 54.2712 100.678C48.4853 99.4265 43.0591 96.8774 38.4019 93.2232C33.7446 89.5689 29.9779 84.9049 27.3857 79.5829C24.7935 74.2609 23.4436 68.4197 23.4376 62.5C23.4174 54.4685 25.9041 46.6308 30.5509 40.0801C31.6654 40.685 32.9117 41.0063 34.1798 41.0156C35.9277 41.0242 37.6285 40.4494 39.0127 39.3821C40.397 38.3148 41.3855 36.8162 41.8217 35.1236C42.2579 33.4309 42.1168 31.6412 41.4209 30.0378C40.7249 28.4344 39.5138 27.1092 37.9794 26.2719C36.4451 25.4347 34.6753 25.1333 32.9503 25.4157C31.2253 25.698 29.6439 26.5479 28.4566 27.8306C27.2692 29.1133 26.5439 30.7556 26.3954 32.4971C26.2469 34.2387 26.6838 35.9801 27.6368 37.4453C22.3474 44.7265 19.509 53.5003 19.5314 62.5C19.5443 73.892 24.0755 84.8138 32.1309 92.8692C40.1863 100.925 51.1081 105.456 62.5001 105.469ZM34.1798 29.2969C34.9524 29.2969 35.7076 29.5259 36.35 29.9552C36.9924 30.3844 37.4931 30.9945 37.7887 31.7082C38.0844 32.422 38.1617 33.2074 38.011 33.9652C37.8603 34.7229 37.4883 35.4189 36.942 35.9652C36.3957 36.5115 35.6996 36.8836 34.9419 37.0343C34.1842 37.185 33.3987 37.1077 32.685 36.812C31.9712 36.5164 31.3611 36.0157 30.9319 35.3733C30.5027 34.7309 30.2736 33.9757 30.2736 33.2031C30.2736 32.1671 30.6851 31.1735 31.4177 30.441C32.1502 29.7084 33.1438 29.2969 34.1798 29.2969Z" fill="#2B77C0"/>
</svg>
