<svg width="125" height="125" viewBox="0 0 125 125" fill="none" xmlns="http://www.w3.org/2000/svg">
<g clip-path="url(#clip0_15_290)">
<path d="M123.833 67.1819L113.827 45.1685C112.997 43.3496 111.663 41.8072 109.982 40.7247C108.301 39.6423 106.345 39.0653 104.346 39.0625H85.9374V31.25C85.9352 29.1787 85.1114 27.1929 83.6467 25.7282C82.1821 24.2636 80.1963 23.4398 78.1249 23.4375H13.0207C10.9494 23.4398 8.96355 24.2636 7.49891 25.7282C6.03427 27.1929 5.21045 29.1787 5.20818 31.25V62.5C5.20485 62.8441 5.26975 63.1854 5.39913 63.5043C5.5285 63.8232 5.71979 64.1133 5.96194 64.3578C6.20408 64.6023 6.49228 64.7963 6.80989 64.9288C7.12749 65.0613 7.46819 65.1295 7.81231 65.1295C8.15643 65.1295 8.49713 65.0613 8.81473 64.9288C9.13234 64.7963 9.42054 64.6023 9.66269 64.3578C9.90483 64.1133 10.0961 63.8232 10.2255 63.5043C10.3549 63.1854 10.4198 62.8441 10.4164 62.5V31.25C10.4172 30.5595 10.6918 29.8976 11.1801 29.4094C11.6683 28.9212 12.3302 28.6465 13.0207 28.6458H78.1249C78.8154 28.6465 79.4773 28.9212 79.9656 29.4094C80.4538 29.8976 80.7284 30.5595 80.7292 31.25V72.9167C80.7282 73.6071 80.4535 74.2689 79.9653 74.7571C79.4771 75.2452 78.8153 75.5198 78.1249 75.5208H46.8749C46.1886 75.5274 45.5327 75.8047 45.0498 76.2923C44.5668 76.78 44.2959 77.4386 44.2959 78.1249C44.2959 78.8112 44.5668 79.4698 45.0498 79.9574C45.5327 80.4451 46.1886 80.7224 46.8749 80.729H78.1249C80.1963 80.7267 82.1821 79.9029 83.6467 78.4383C85.1114 76.9736 85.9352 74.9878 85.9374 72.9165V44.2707H104.346C105.345 44.2721 106.324 44.5606 107.164 45.1018C108.005 45.643 108.672 46.4142 109.087 47.3237L110.067 49.479H98.9587C97.5777 49.4804 96.2537 50.0295 95.2771 51.006C94.3006 51.9825 93.7514 53.3065 93.7499 54.6875V65.1042C93.7513 66.4851 94.3005 67.8091 95.2769 68.7855C96.2533 69.762 97.5773 70.3111 98.9582 70.3125H119.451C119.675 71.0436 119.79 71.8037 119.791 72.5684V83.3335C119.79 84.0238 119.516 84.6856 119.028 85.1737C118.54 85.6619 117.878 85.9365 117.187 85.9375H109.112C108.512 82.9968 106.914 80.3539 104.589 78.4557C102.264 76.5576 99.3553 75.5208 96.3539 75.5208C93.3526 75.5208 90.4435 76.5576 88.1186 78.4557C85.7938 80.3539 84.196 82.9968 83.5956 85.9375H41.404C40.8036 82.9968 39.2059 80.3539 36.881 78.4557C34.5562 76.5576 31.647 75.5208 28.6457 75.5208C25.6444 75.5208 22.7352 76.5576 20.4104 78.4557C18.0855 80.3539 16.4878 82.9968 15.8874 85.9375H13.0207C12.3303 85.9366 11.6684 85.6619 11.1802 85.1737C10.692 84.6855 10.4173 84.0237 10.4164 83.3333V80.7292C11.1027 80.7226 11.7586 80.4453 12.2416 79.9577C12.7245 79.47 12.9955 78.8114 12.9955 78.1251C12.9955 77.4388 12.7245 76.7802 12.2416 76.2926C11.7586 75.8049 11.1027 75.5276 10.4164 75.521H2.60394C1.91765 75.5276 1.26172 75.8049 0.778776 76.2926C0.295828 76.7802 0.0249023 77.4388 0.0249023 78.1251C0.0249023 78.8114 0.295828 79.47 0.778776 79.9577C1.26172 80.4453 1.91765 80.7226 2.60394 80.7292H5.20818V83.3335C5.21045 85.4048 6.03427 87.3906 7.49891 88.8553C8.96355 90.3199 10.9494 91.1437 13.0207 91.146H15.8876C16.488 94.0866 18.0858 96.7296 20.4106 98.6278C22.7354 100.526 25.6446 101.563 28.6459 101.563C31.6472 101.563 34.5564 100.526 36.8813 98.6278C39.2061 96.7296 40.8039 94.0866 41.4042 91.146H83.5959C84.1963 94.0866 85.794 96.7296 88.1189 98.6278C90.4437 100.526 93.3529 101.563 96.3542 101.563C99.3555 101.563 102.265 100.526 104.59 98.6278C106.914 96.7296 108.512 94.0866 109.112 91.146H117.187C119.259 91.1437 121.245 90.3199 122.709 88.8553C124.174 87.3906 124.998 85.4048 125 83.3335V72.5684C125.003 70.7098 124.605 68.8725 123.833 67.1819ZM28.6457 96.3542C27.1005 96.3542 25.5901 95.896 24.3053 95.0376C23.0205 94.1791 22.0192 92.959 21.4279 91.5315C20.8366 90.1039 20.6819 88.5331 20.9833 87.0176C21.2847 85.5021 22.0288 84.1101 23.1214 83.0175C24.214 81.9249 25.6061 81.1808 27.1215 80.8794C28.637 80.5779 30.2079 80.7326 31.6354 81.3239C33.063 81.9152 34.2831 82.9166 35.1415 84.2014C36 85.4861 36.4582 86.9966 36.4582 88.5417C36.4559 90.6131 35.6321 92.5989 34.1675 94.0635C32.7028 95.5282 30.717 96.352 28.6457 96.3542ZM96.3539 96.3542C94.8088 96.3542 93.2983 95.896 92.0135 95.0376C90.7288 94.1791 89.7274 92.959 89.1361 91.5315C88.5448 90.1039 88.3901 88.5331 88.6916 87.0176C88.993 85.5021 89.7371 84.1101 90.8297 83.0175C91.9223 81.9249 93.3143 81.1808 94.8298 80.8794C96.3453 80.5779 97.9161 80.7326 99.3437 81.3239C100.771 81.9152 101.991 82.9166 102.85 84.2014C103.708 85.4861 104.166 86.9966 104.166 88.5417C104.164 90.613 103.34 92.5988 101.876 94.0634C100.411 95.5281 98.4255 96.3519 96.3542 96.3542H96.3539ZM98.9582 54.6875H112.433L117.168 65.1042H98.9582V54.6875Z" fill="#2B77C0"/>
<path d="M2.60442 72.9167H15.6252C16.3115 72.9101 16.9674 72.6328 17.4503 72.1452C17.9333 71.6575 18.2042 70.9989 18.2042 70.3126C18.2042 69.6263 17.9333 68.9677 17.4503 68.4801C16.9674 67.9924 16.3115 67.7151 15.6252 67.7085H2.60442C1.91813 67.7151 1.26221 67.9924 0.779264 68.4801C0.296316 68.9677 0.0253906 69.6263 0.0253906 70.3126C0.0253906 70.9989 0.296316 71.6575 0.779264 72.1452C1.26221 72.6328 1.91813 72.9101 2.60442 72.9167Z" fill="#2B77C0"/>
</g>
<defs>
<clipPath id="clip0_15_290">
<path d="M0 10C0 4.47715 4.47715 0 10 0H115C120.523 0 125 4.47715 125 10V115C125 120.523 120.523 125 115 125H10C4.47715 125 0 120.523 0 115V10Z" fill="white"/>
</clipPath>
</defs>
</svg>
