<svg width="125" height="129" viewBox="0 0 125 129" fill="none" xmlns="http://www.w3.org/2000/svg">
<g clip-path="url(#clip0_144_1039)">
<path d="M58.2029 36.2889V25.5984H112.719V45.2411L118.121 39.8392V25.5989V11.5037H112.719H58.2024H52.8008V25.5989V28.3701C54.6665 30.1122 56.594 32.6326 58.2029 36.2889ZM85.4608 16.095C86.9526 16.095 88.1616 17.3045 88.1616 18.7958C88.1616 20.287 86.9526 21.4966 85.4608 21.4966C83.969 21.4966 82.76 20.287 82.76 18.7958C82.76 17.3045 83.969 16.095 85.4608 16.095Z" fill="#2B77C0"/>
<path d="M112.719 101.169H58.2029V81.5153C57.1758 82.0381 56.0169 82.3345 54.7926 82.3356C54.6539 82.3356 54.5146 82.3293 54.3727 82.3229C53.8331 82.2913 53.3077 82.2026 52.8008 82.0655V101.169V106.571H58.2024H112.719H118.121V101.169V52.0588L112.719 57.4607V101.169H112.719Z" fill="#2B77C0"/>
<path d="M99.9177 90.3661C98.1073 90.3661 96.4441 89.7252 95.1407 88.6602L92.0854 94.2991L95.6598 93.2895L96.7031 96.8005L99.9166 90.8688L103.131 96.8005L104.175 93.2895L107.749 94.2991L104.694 88.6602C103.39 89.7252 101.728 90.3661 99.9177 90.3661Z" fill="#2B77C0"/>
<path d="M99.9169 89.2858C103.497 89.2858 106.399 86.3838 106.399 82.8039C106.399 79.2241 103.497 76.322 99.9169 76.322C96.3371 76.322 93.4351 79.2241 93.4351 82.8039C93.4351 86.3838 96.3371 89.2858 99.9169 89.2858Z" fill="#2B77C0"/>
<path d="M103.897 36.8911H67.9766V39.6726H103.897V36.8911Z" fill="#2B77C0"/>
<path d="M103.897 43.7375H67.9766V46.5185H103.897V43.7375Z" fill="#2B77C0"/>
<path d="M103.897 50.5845H67.9766V53.3654H103.897V50.5845Z" fill="#2B77C0"/>
<path d="M82.8309 81.9136H67.9766V84.6945H82.8309V81.9136Z" fill="#2B77C0"/>
<path d="M82.8309 87.3152H67.9766V90.0961H82.8309V87.3152Z" fill="#2B77C0"/>
<path d="M86.6143 77.455L92.153 75.7364L125 42.8892L121.181 39.0696L88.3334 71.9174L86.6143 77.455Z" fill="#2B77C0"/>
<path d="M31.1578 72.677H33.6618V121.437C33.6618 125.127 36.6527 128.116 40.341 128.116C44.0281 128.116 47.019 125.127 47.019 121.437V68.5014V58.2721V40.4121C48.8922 44.2471 50.7991 51.5951 50.7812 64.676C50.7812 67.6553 50.6851 70.9268 50.4742 74.5185C50.3339 76.9012 52.1516 78.9469 54.5348 79.0861C54.6214 79.0903 54.7068 79.0935 54.7917 79.0935C57.0626 79.0924 58.9669 77.3211 59.1019 75.0244C59.3213 71.2792 59.4226 67.8399 59.4226 64.676C59.4163 52.437 57.9266 44.3314 55.708 38.7241C53.5168 33.1395 50.3845 29.9877 47.479 28.5466C45.6339 27.6171 44.0144 27.4067 43.0386 27.3945C42.9742 27.3919 42.9098 27.3851 42.8444 27.3851H28.4987C28.5008 27.5032 28.5029 27.6422 28.5034 27.8208C28.495 29.9363 28.2618 36.1956 25.5821 43.3635L22.5907 42.1038C25.0277 35.5001 25.2693 29.6857 25.2625 27.8208C25.2625 27.6261 25.2604 27.4855 25.2577 27.3851H21.9751C21.7167 27.3851 21.465 27.412 21.2192 27.4568L21.2197 27.4616C19.5523 27.6496 18.1054 28.3029 16.8394 29.139C15.3455 30.1376 14.0563 31.4405 12.9422 32.9797C10.7341 36.0513 9.20231 40.1347 9.19388 44.7777C9.18859 48.2534 10.0969 52.0213 12.2037 55.6347C14.3053 59.2533 17.5652 62.6958 22.1291 65.7468C22.8666 66.2405 23.7021 66.4779 24.5282 66.4779C25.9218 66.4779 27.2902 65.8038 28.1236 64.5589C29.4508 62.5755 28.9191 59.8915 26.9346 58.5644C23.2738 56.1115 21.0256 53.6122 19.6753 51.2913C18.3301 48.9639 17.8416 46.7938 17.8364 44.7777C17.8343 42.8945 18.2879 41.139 18.9816 39.6842C19.6636 38.2335 20.611 37.1036 21.3537 36.5319C21.5837 36.3473 21.7805 36.2304 21.9303 36.1544L22.03 37.3743C21.4656 37.8095 20.5994 38.7832 19.9591 40.1442C19.2743 41.5811 18.9151 43.1804 18.9167 44.7766C18.9198 45.839 19.0723 46.8732 19.3714 47.8952L21.2989 43.3186L38.0384 50.367L29.0441 71.7212L12.306 64.6739L14.1755 60.2344C13.0598 58.9347 12.0856 57.5822 11.2685 56.1769C9.19858 52.6237 8.10768 48.6812 8.11454 44.7756C8.12086 40.2982 9.52505 35.8841 12.0644 32.3488C13.2914 30.6534 14.6956 29.273 16.239 28.2406C17.7767 27.2247 19.5528 26.5822 21.1305 26.3702L21.1311 26.3794C21.4069 26.3348 21.6871 26.3052 21.9751 26.3052H29.878C27.0227 25.6957 22.1017 24.7629 18.9251 24.8074C18.1053 24.8191 17.399 24.8942 16.8784 25.0588C13.4581 26.1391 3.9146 32.621 0.403577 51.7966C-2.23655 66.2147 8.63676 77.5015 16.7202 79.4596V68.2904L17.8005 68.7451V84.2519V121.437C17.8005 125.127 20.7919 128.116 24.4796 128.116C27.3323 128.116 29.7614 126.324 30.7178 123.805C30.9979 123.068 31.1578 122.272 31.1578 121.437V72.677V72.677Z" fill="#2B77C0"/>
<path d="M44.5629 12.1535C44.5629 5.44117 39.1213 0 32.4099 0C25.697 0 20.2563 5.44117 20.2563 12.1535C20.2563 18.866 25.697 24.3071 32.4099 24.3071C39.1213 24.3071 44.5629 18.866 44.5629 12.1535Z" fill="#2B77C0"/>
<path d="M22.589 47.8293L22.1016 48.9868L33.423 53.7544L33.9104 52.5969L22.589 47.8293Z" fill="#2B77C0"/>
<path d="M21.6088 50.1506L21.1226 51.3088L32.4497 56.0645L32.936 54.9063L21.6088 50.1506Z" fill="#2B77C0"/>
</g>
<defs>
<clipPath id="clip0_144_1039">
<rect width="125" height="128.116" fill="white"/>
</clipPath>
</defs>
</svg>
