<svg width="31" height="30" viewBox="0 0 31 30" fill="none" xmlns="http://www.w3.org/2000/svg">
<path d="M6.13004 0C3.09557 0 0.652222 2.44335 0.652222 5.47782V24.5222C0.652222 27.5567 3.09557 30 6.13004 30H16.4519V18.2719H13.3507V14.0494H16.4519V10.4419C16.4519 7.60764 18.2843 5.00532 22.5054 5.00532C24.2144 5.00532 25.4782 5.16939 25.4782 5.16939L25.3788 9.11253C25.3788 9.11253 24.0899 9.10035 22.6835 9.10035C21.1613 9.10035 20.9172 9.80169 20.9172 10.966V14.0494H25.4997L25.3 18.2719H20.9172V30.0001H25.1744C28.2089 30.0001 30.6522 27.5567 30.6522 24.5222V5.47785C30.6522 2.44338 28.2089 3e-05 25.1744 3e-05H6.13001L6.13004 0Z" fill="#2B77C0"/>
</svg>
