<svg width="125" height="125" viewBox="0 0 125 125" fill="none" xmlns="http://www.w3.org/2000/svg">
<rect width="125" height="125" fill="white"/>
<path d="M117.188 35.9023V3.90625H101.562V28.0898L89.8438 22.2304V35.9023L85.9375 33.9492V3.90625H70.3125V26.1367L62.5 22.2304V62.5H33.2031C31.6497 62.5017 30.1604 63.1196 29.0618 64.218C27.9634 65.3166 27.3455 66.8059 27.3438 68.3594V72.2656H14.5426L3.90625 89.2837V107.422H11.966C12.3992 109.099 13.3774 110.584 14.7468 111.645C16.1162 112.706 17.7991 113.281 19.5312 113.281C21.2634 113.281 22.9463 112.706 24.3157 111.645C25.6851 110.584 26.6633 109.099 27.0964 107.422H60.1589C60.698 109.122 61.7644 110.606 63.2039 111.66C64.6431 112.713 66.3804 113.281 68.1641 113.281C69.9475 113.281 71.6848 112.713 73.1243 111.66C74.5635 110.606 75.6299 109.122 76.1692 107.422H87.8906V103.516H85.9375V68.3594C85.9358 66.8059 85.3179 65.3166 84.2195 64.218C83.1209 63.1196 81.6316 62.5017 80.0781 62.5H66.4062V28.5508L89.8438 40.2695V101.562H93.75V28.5508L117.188 40.2695V117.188H3.90625V121.094H121.094V37.8555L117.188 35.9023ZM19.5312 109.375C18.7587 109.375 18.0034 109.146 17.3611 108.717C16.7187 108.287 16.218 107.677 15.9223 106.964C15.6267 106.25 15.5493 105.464 15.7 104.707C15.8508 103.949 16.2228 103.253 16.7691 102.707C17.3154 102.16 18.0115 101.788 18.7692 101.637C19.5269 101.487 20.3123 101.564 21.0261 101.86C21.7399 102.156 22.35 102.656 22.7792 103.299C23.2084 103.941 23.4375 104.696 23.4375 105.469C23.4363 106.504 23.0244 107.497 22.2921 108.229C21.5598 108.962 20.5669 109.374 19.5312 109.375ZM27.3438 103.516H27.0964C26.6633 101.839 25.6851 100.353 24.3157 99.2925C22.9463 98.2317 21.2634 97.6562 19.5312 97.6562C17.7991 97.6562 16.1162 98.2317 14.7468 99.2925C13.3774 100.353 12.3992 101.839 11.966 103.516H7.8125V91.7969H27.3438V103.516ZM27.3438 87.8906H9.3832L16.7074 76.1719H27.3438V87.8906ZM68.1641 109.375C67.2756 109.375 66.4072 109.112 65.6685 108.618C64.9297 108.125 64.3538 107.423 64.0139 106.602C63.6738 105.781 63.5847 104.878 63.7581 104.007C63.9314 103.135 64.3591 102.335 64.9875 101.707C65.6157 101.078 66.416 100.65 67.2876 100.477C68.1589 100.304 69.062 100.393 69.8831 100.733C70.7039 101.073 71.4053 101.648 71.8989 102.387C72.3926 103.126 72.6563 103.994 72.6563 104.883C72.6548 106.074 72.1811 107.216 71.3391 108.058C70.4968 108.9 69.355 109.374 68.1641 109.375ZM80.0781 66.4062C80.5959 66.4067 81.0923 66.6128 81.4585 66.979C81.8247 67.3452 82.0308 67.8416 82.0312 68.3594V103.516H76.4495C76.1257 101.552 75.1147 99.7668 73.5974 98.4792C72.0798 97.1914 70.1543 96.4844 68.1641 96.4844C66.1738 96.4844 64.248 97.1914 62.7307 98.4792C61.2131 99.7668 60.2024 101.552 59.8787 103.516H31.25V68.3594C31.2505 67.8416 31.4565 67.3452 31.8228 66.979C32.189 66.6128 32.6853 66.4067 33.2031 66.4062H80.0781ZM82.0312 31.9961L74.2188 28.0898V15.625H82.0312V31.9961ZM82.0312 11.7188H74.2188V7.8125H82.0312V11.7188ZM113.281 33.9492L105.469 30.043V15.625H113.281V33.9492ZM113.281 11.7188H105.469V7.8125H113.281V11.7188Z" fill="#2B77C0"/>
<path d="M42.3479 47.793L47.7925 42.3484L45.1272 37.999L45.8369 36.2864L50.7813 35.1008V27.3999L45.8369 26.2144L45.1272 24.5017L47.7925 20.1523L42.3479 14.7078L37.9986 17.3731L36.2862 16.6633L35.1004 11.719H27.3994L26.2139 16.6633L24.5015 17.3731L20.1521 14.7078L14.7076 20.1523L17.3729 24.5017L16.6631 26.2144L11.7188 27.3999V35.1008L16.6631 36.2864L17.3729 37.999L14.7076 42.3484L20.1519 47.7927L24.5012 45.1277L26.2139 45.8374L27.3997 50.7815H35.1006L36.2862 45.8374L37.9986 45.1277L42.3479 47.793ZM32.9517 42.9907L32.02 46.8752H30.48L29.5484 42.9907L24.158 40.7568L20.7365 42.853L19.6471 41.7637L21.7436 38.3428L19.5098 32.9519L15.625 32.0205V30.4802L19.5098 29.5488L21.7436 24.158L19.6471 20.7369L20.7367 19.6474L24.1578 21.7438L29.5484 19.51L30.48 15.6252H32.02L32.9517 19.5101L38.3423 21.7438L41.7632 19.6474L42.8528 20.7369L40.7564 24.158L42.9903 29.5488L46.875 30.4802V32.0205L42.9903 32.9519L40.7564 38.3428L42.8528 41.7639L41.7632 42.8533L38.3423 40.7568L32.9517 42.9907Z" fill="#2B77C0"/>
<path d="M31.25 23.4375C29.7048 23.4375 28.1943 23.8957 26.9097 24.7541C25.6248 25.6125 24.6235 26.8328 24.0322 28.2603C23.4409 29.6877 23.2862 31.2585 23.5876 32.7742C23.8891 34.2895 24.6331 35.6816 25.7258 36.7742C26.8184 37.8669 28.2105 38.6108 29.7258 38.9123C31.2415 39.2139 32.8123 39.0591 34.2398 38.4678C35.6672 37.8765 36.8875 36.8752 37.7459 35.5903C38.6043 34.3057 39.0625 32.7952 39.0625 31.25C39.0601 29.1787 38.2363 27.1929 36.7717 25.7283C35.3071 24.2637 33.3213 23.4399 31.25 23.4375ZM31.25 35.1562C30.4775 35.1562 29.7222 34.9272 29.0798 34.498C28.4375 34.0686 27.9368 33.4587 27.6411 32.7449C27.3455 32.031 27.2681 31.2456 27.4187 30.488C27.5696 29.7302 27.9417 29.0342 28.4878 28.4878C29.0342 27.9416 29.7302 27.5696 30.488 27.4187C31.2456 27.2681 32.031 27.3455 32.7449 27.6411C33.4587 27.9368 34.0686 28.4375 34.4981 29.0798C34.9273 29.7222 35.1563 30.4773 35.1563 31.25C35.155 32.2856 34.7432 33.2786 34.0108 34.0107C33.2786 34.7432 32.2857 35.155 31.25 35.1562Z" fill="#2B77C0"/>
<path d="M111.328 42.9688H99.6094V58.5938H111.328V42.9688ZM107.422 54.6875H103.516V46.875H107.422V54.6875Z" fill="#2B77C0"/>
<path d="M83.9844 58.5938V42.9688H72.2656V58.5938H83.9844ZM76.1719 46.875H80.0781V54.6875H76.1719V46.875Z" fill="#2B77C0"/>
<path d="M99.6094 80.0781H111.328V64.4531H99.6094V80.0781ZM103.516 68.3594H107.422V76.1719H103.516V68.3594Z" fill="#2B77C0"/>
<path d="M99.6094 101.562H111.328V85.9375H99.6094V101.562ZM103.516 89.8438H107.422V97.6562H103.516V89.8438Z" fill="#2B77C0"/>
<path d="M41.0156 70.3125H37.1094V99.6094H41.0156V70.3125Z" fill="#2B77C0"/>
<path d="M52.7344 70.3125H48.8281V99.6094H52.7344V70.3125Z" fill="#2B77C0"/>
<path d="M64.4531 70.3125H60.5469V93.75H64.4531V70.3125Z" fill="#2B77C0"/>
<path d="M76.1719 70.3125H72.2656V93.75H76.1719V70.3125Z" fill="#2B77C0"/>
<path d="M31.25 58.5938C33.374 58.5945 35.491 58.3489 37.5586 57.8618L36.6602 54.0605C34.8872 54.4778 33.0715 54.6882 31.25 54.6875V58.5938Z" fill="#2B77C0"/>
<path d="M8.94236 38.4621C7.56797 34.2092 7.43807 29.6523 8.5679 25.3281C9.69776 21.0039 12.0403 17.0928 15.3194 14.0559C18.5985 11.019 22.6774 8.98289 27.0754 8.1875C31.4734 7.39212 36.0071 7.87063 40.1423 9.56668C44.2774 11.2627 47.8413 14.1055 50.4141 17.7601C52.9868 21.4146 54.4612 25.7285 54.6636 30.1933C54.8657 34.6582 53.7874 39.0876 51.5554 42.9597C49.3233 46.832 46.031 49.9853 42.0662 52.0481L43.8713 55.5124C48.4915 53.1045 52.3269 49.4262 54.926 44.9111C57.5254 40.3962 58.78 35.2321 58.5425 30.0278C58.3047 24.8234 56.5845 19.7954 53.5847 15.536C50.5847 11.2766 46.4299 7.96333 41.6096 5.9865C36.7896 4.00964 31.5049 3.45159 26.3779 4.37803C21.2513 5.30449 16.4961 7.67688 12.6726 11.2157C8.84923 14.7546 6.11683 19.3124 4.79737 24.3524C3.47791 29.3923 3.62635 34.7043 5.22518 39.6628L8.94236 38.4621Z" fill="#2B77C0"/>
<path d="M11.4173 43.7449L8.11426 45.8306C9.30249 47.7112 10.7146 49.4407 12.3197 50.981L15.0243 48.1628C13.6477 46.8416 12.4364 45.3582 11.4173 43.7449Z" fill="#2B77C0"/>
<path d="M18.6284 55.5122C20.6273 56.5542 22.748 57.3435 24.9417 57.8621L25.8396 54.0603C23.9614 53.6165 22.1456 52.9407 20.4342 52.0483L18.6284 55.5122Z" fill="#2B77C0"/>
</svg>
