<svg width="20" height="17" viewBox="0 0 20 17" fill="none" xmlns="http://www.w3.org/2000/svg">
<path d="M0 5.06333V13.3333C0 14.2174 0.351189 15.0652 0.976311 15.6904C1.60143 16.3155 2.44928 16.6667 3.33333 16.6667H16.6667C17.5507 16.6667 18.3986 16.3155 19.0237 15.6904C19.6488 15.0652 20 14.2174 20 13.3333V3.33333C20 2.44928 19.6488 1.60143 19.0237 0.976311C18.3986 0.351189 17.5507 0 16.6667 0H3.33333C2.44928 0 1.60143 0.351189 0.976311 0.976311C0.351189 1.60143 0 2.44928 0 3.33333V5.06333ZM3.33333 1.66667H16.6667C17.1087 1.66667 17.5326 1.84226 17.8452 2.15482C18.1577 2.46738 18.3333 2.89131 18.3333 3.33333V4.56667L10 9.05333L1.66667 4.56667V3.33333C1.66667 2.89131 1.84226 2.46738 2.15482 2.15482C2.46738 1.84226 2.89131 1.66667 3.33333 1.66667ZM1.66667 6.46L9.605 10.7333C9.7264 10.7987 9.86212 10.8329 10 10.8329C10.1379 10.8329 10.2736 10.7987 10.395 10.7333C10.395 10.7333 15.7825 4.03332 18.3333 6.46C20.2781 8.31009 18.3333 13.3333 18.3333 13.3333C18.3333 13.7754 18.1577 14.1993 17.8452 14.5118C17.5326 14.8244 17.1087 15 16.6667 15H3.33333C2.89131 15 2.46738 14.8244 2.15482 14.5118C1.84226 14.1993 1.66667 13.7754 1.66667 13.3333V6.46Z" fill="#2B77C0"/>
</svg>
