<svg width="30" height="51" viewBox="0 0 30 51" fill="none" xmlns="http://www.w3.org/2000/svg">
<g clip-path="url(#clip0_15_556)">
<path fill-rule="evenodd" clip-rule="evenodd" d="M24.2308 0H5.76923C2.58462 0 0 2.58462 0 5.76923V45C0 48.1846 2.58462 50.7692 5.76923 50.7692H24.2308C27.4154 50.7692 30 48.1846 30 45V5.76923C30 2.58462 27.4154 0 24.2308 0ZM15 48.4615C13.0846 48.4615 11.5385 46.9154 11.5385 45C11.5385 43.0846 13.0846 41.5385 15 41.5385C16.9154 41.5385 18.4615 43.0846 18.4615 45C18.4615 46.9154 16.9154 48.4615 15 48.4615ZM25.3846 39.2308H4.61538V6.92308H25.3846V39.2308Z" fill="white"/>
</g>
<defs>
<clipPath id="clip0_15_556">
<rect width="30" height="50.7692" fill="white"/>
</clipPath>
</defs>
</svg>
