<svg width="128" height="128" viewBox="0 0 128 128" fill="none" xmlns="http://www.w3.org/2000/svg">
<path d="M112.971 48.6938C112.592 35.9512 107.263 23.8576 98.1158 14.9783C88.9684 6.09895 76.7217 1.13243 63.9735 1.1322C51.2252 1.13197 38.9783 6.09804 29.8306 14.977C20.6828 23.856 15.3539 35.9494 14.9741 48.692C5.69992 50.7037 0.483887 59.0414 0.483887 72.2503C0.483887 87.5224 7.45656 96.2828 19.6129 96.2828C20.9087 96.2828 22.1519 95.77 23.0708 94.8564C23.9898 93.9428 24.5099 92.7026 24.5176 91.4068L24.7619 50.1791C24.7617 45.024 25.7775 39.9193 27.751 35.1569C29.7246 30.3945 32.6172 26.0676 36.2637 22.4236C39.9102 18.7796 44.239 15.8899 49.0028 13.9196C53.7665 11.9493 58.8718 10.937 64.027 10.9406C69.1821 10.9442 74.286 11.9637 79.047 13.9407C83.808 15.9177 88.1328 18.8135 91.7741 22.4626C95.4155 26.1117 98.3021 30.4426 100.269 35.2078C102.236 39.973 103.244 45.0791 103.237 50.2342L103.728 93.8304C103.728 104.58 93.3525 110.324 72.8986 110.936C71.6777 108.946 69.8261 107.421 67.6385 106.605C65.4508 105.789 63.053 105.728 60.8268 106.432C58.6005 107.136 56.6738 108.564 55.3533 110.49C54.0329 112.416 53.3946 114.728 53.5401 117.058C53.6857 119.389 54.6066 121.603 56.1564 123.35C57.7062 125.096 59.7957 126.274 62.0923 126.696C64.3888 127.117 66.7604 126.759 68.8295 125.676C70.8986 124.594 72.5461 122.851 73.5099 120.724C104.688 119.656 112.706 107.079 113.469 95.6815C122.455 93.4893 127.516 85.2198 127.516 72.2503C127.516 59.0187 122.274 50.6876 112.971 48.6938Z" fill="#2B77C0"/>
<path d="M55.8103 68.6161C55.3929 67.1718 55.3649 65.6429 55.7291 64.1843C56.0933 62.7257 56.8368 61.3893 57.8841 60.3108C58.9315 59.2323 60.2454 58.4499 61.6927 58.0431C63.14 57.6363 64.6691 57.6194 66.125 57.9943C67.5809 58.3691 68.9118 59.1223 69.9826 60.1775C71.0535 61.2327 71.8262 62.5524 72.2225 64.0026C72.6187 65.4528 72.6244 66.982 72.2389 68.4351C71.8534 69.8882 71.0905 71.2135 70.0275 72.2767L60.9354 81.37V97.0133C60.9354 97.8263 61.2583 98.606 61.8332 99.1809C62.4081 99.7558 63.1878 100.079 64.0008 100.079C64.8138 100.079 65.5935 99.7558 66.1684 99.1809C66.7433 98.606 67.0662 97.8263 67.0662 97.0133V83.9085L74.3622 76.6114C76.1892 74.7839 77.5005 72.5058 78.163 70.0081C78.8256 67.5104 78.8159 64.8819 78.1349 62.3891C77.454 59.8963 76.126 57.628 74.2855 55.814C72.4451 54.0001 70.1578 52.705 67.6554 52.0602C65.1531 51.4154 62.5247 51.4438 60.0368 52.1424C57.549 52.8411 55.2901 54.1852 53.4893 56.0384C51.6884 57.8917 50.4097 60.1882 49.7827 62.6951C49.1556 65.2019 49.2027 67.83 49.919 70.3129C50.03 70.7001 50.2163 71.0617 50.4671 71.377C50.718 71.6922 51.0286 71.9549 51.381 72.15C51.7335 72.3451 52.121 72.4689 52.5213 72.5141C52.9216 72.5594 53.327 72.5253 53.7141 72.4138C54.1012 72.3023 54.4626 72.1156 54.7775 71.8643C55.0925 71.6131 55.3548 71.3022 55.5495 70.9495C55.7441 70.5968 55.8674 70.2091 55.9122 69.8088C55.9569 69.4084 55.9223 69.0031 55.8104 68.6161H55.8103Z" fill="#2B77C0"/>
</svg>
