<svg width="125" height="125" viewBox="0 0 125 125" fill="none" xmlns="http://www.w3.org/2000/svg">
<path d="M122.001 63.2929C121.549 62.3636 120.43 61.9788 119.505 62.4284L106.288 68.8495L97.2806 72.7507C95.8905 72.392 92.3393 71.4615 89.1493 70.5161L87.5848 69.9332C87.3556 69.8485 87.1202 69.8136 86.8898 69.8198C85.7837 69.4623 84.8221 69.1235 84.1744 68.8383C81.0678 67.4706 75.5174 64.2557 73.2803 62.3151C70.753 60.1303 64.1687 52.0214 64.1027 51.9392C63.5434 51.2491 62.5756 51.0486 61.7884 51.4584C59.9773 52.4013 54.103 54.8888 50.9927 53.9845C49.351 53.4962 46.313 51.8296 45.4535 50.792C44.8806 50.1019 44.3923 47.6145 44.6501 46.8198C45.3215 46.4797 47.8675 46.9107 49.1144 47.1212C51.2481 47.4824 53.266 47.8237 54.8242 47.3192C57.8585 46.339 63.9769 41.1112 65.4517 39.8257C66.9153 39.2913 74.136 36.8574 79.172 38.8604C81.8289 39.9179 84.4123 40.2828 86.7166 40.2828C91.7003 40.2828 95.3761 38.5701 95.6488 38.4393L114.004 28.6302C114.913 28.1432 115.257 27.0122 114.771 26.1016C114.284 25.1924 113.153 24.8473 112.243 25.3344L93.9698 35.1011C93.9063 35.131 87.4067 38.113 80.5534 35.3876C74.5845 33.011 66.8405 35.3739 64.4926 36.1985C61.888 35.2107 54.5664 32.5912 51.3129 33.0845C48.2761 33.5504 39.4323 33.9676 35.8499 33.3062C34.3378 32.879 22.8508 26.6634 12.8125 21.0333C11.9107 20.5288 10.7735 20.8489 10.269 21.7495C9.76452 22.6488 10.0846 23.7886 10.984 24.293C17.5495 27.9763 33.0448 36.5822 35.1076 36.967C39.4896 37.7792 48.9064 37.2336 51.8746 36.779C53.3419 36.556 57.3279 37.6534 60.8168 38.8467C58.2085 40.9804 55.0945 43.3034 53.6745 43.7618C52.9845 43.9848 51.1846 43.6796 49.7372 43.4342C46.7764 42.9335 43.7159 42.4153 41.9223 44.2351C39.9206 46.2866 41.1201 51.4235 42.575 53.1748C44.0759 54.9872 47.8688 56.954 49.9377 57.5681C53.9635 58.7377 59.5301 56.6102 62.1347 55.4331C64.1052 57.8234 68.6492 63.2493 70.8315 65.1364C73.5543 67.4993 79.659 70.9309 82.6659 72.255C83.8368 72.7707 85.8161 73.4159 87.9311 74.0474L96.6939 77.3121C97.1523 77.5488 97.4998 77.9897 97.7278 78.625C98.1239 79.7298 98.0441 81.2046 97.5322 82.2908C96.9069 83.6062 95.5044 84.2912 94.1753 84.0994C93.9125 83.9474 93.6173 83.8628 93.3121 83.8503L81.4315 77.6871C80.516 77.2112 79.3875 77.57 78.9129 78.4855C78.4384 79.401 78.7946 80.5295 79.7114 81.0041L91.6766 87.2097C91.7127 87.2271 91.7501 87.2371 91.7862 87.2545C91.8772 87.7279 91.7925 88.0567 91.6579 88.4902C91.567 88.7816 91.4611 89.1229 91.4076 89.5178C90.6228 90.9677 88.8466 91.6092 87.3232 90.954L77.2949 86.5956C77.25 86.5757 77.204 86.5682 77.1579 86.552C77.0981 86.5308 77.0383 86.5084 76.9785 86.4947C76.9175 86.4798 76.8552 86.4723 76.7942 86.4648C76.7344 86.4573 76.6758 86.4474 76.6173 86.4449C76.5538 86.4424 76.4915 86.4474 76.4292 86.4524C76.3719 86.4561 76.3146 86.4573 76.2585 86.4673C76.1963 86.4773 76.1365 86.4935 76.0767 86.5097C76.0219 86.5246 75.9658 86.5371 75.9123 86.557C75.855 86.5782 75.8014 86.6056 75.7466 86.6317C75.693 86.6579 75.6395 86.6815 75.5884 86.7127C75.5373 86.7426 75.4913 86.78 75.4439 86.8148C75.3941 86.851 75.3455 86.8871 75.2994 86.9282C75.2558 86.968 75.2172 87.0129 75.1774 87.0565C75.135 87.1038 75.0914 87.1486 75.054 87.1997C75.0179 87.2483 74.9893 87.3019 74.9569 87.3542C74.9307 87.3978 74.9008 87.4351 74.8784 87.4812C74.8709 87.4962 74.8685 87.5124 74.861 87.5273C74.8547 87.541 74.8448 87.5522 74.8398 87.5659C74.8211 87.6083 74.8136 87.6506 74.7987 87.6942C74.7763 87.7578 74.7526 87.8213 74.7377 87.8848C74.724 87.9421 74.7177 88.0006 74.7103 88.0592C74.7015 88.1215 74.6916 88.1837 74.6903 88.246C74.6878 88.3058 74.6928 88.3656 74.6966 88.4254C74.7003 88.4852 74.7028 88.545 74.7115 88.6048C74.7215 88.6646 74.7377 88.7231 74.7526 88.7816C74.7676 88.8389 74.7813 88.895 74.8012 88.951C74.8224 89.0071 74.8485 89.0619 74.8747 89.1155C74.8996 89.169 74.9245 89.2226 74.9544 89.2724C74.9855 89.3247 75.0229 89.3733 75.059 89.4219C75.0939 89.4705 75.1288 89.5178 75.1686 89.5626C75.2097 89.6087 75.2571 89.6486 75.3044 89.6909C75.3493 89.7308 75.3916 89.7719 75.4402 89.808C75.4913 89.8454 75.5473 89.8778 75.6034 89.9102C75.6432 89.9351 75.6793 89.9637 75.7217 89.9849L78.3948 91.309C79.9804 92.0626 80.6605 93.9658 79.9094 95.554C79.5407 96.3337 78.8918 96.9229 78.0821 97.2119C77.2837 97.4971 76.4255 97.4535 75.6607 97.0898L68.1434 93.5386L70.2859 89.9039C72.3486 86.4175 71.1877 81.8959 67.7 79.8257C67.6988 79.8257 67.6975 79.8245 67.6975 79.8245C66.1405 78.9052 64.3805 78.625 62.7238 78.9003C63.0639 75.5708 61.5455 72.2101 58.5398 70.4227C58.5374 70.4202 58.5336 70.419 58.5299 70.4165C55.5442 68.6627 51.9244 68.9118 49.1854 70.7353C48.641 69.1161 47.5437 67.6736 45.9605 66.7332C42.4467 64.6705 37.9127 65.8326 35.8537 69.3216L30.8439 77.8004L18.5821 69.0289C18.5386 68.9977 18.49 68.9765 18.4439 68.9504C18.399 68.9242 18.3592 68.8918 18.3119 68.8694L5.05739 62.4322C4.13066 61.9825 3.01086 62.3674 2.5612 63.2966C2.11029 64.2246 2.49768 65.3431 3.42565 65.794L16.5381 72.164L29.1137 81.161C28.1509 84.3386 29.4376 87.891 32.4283 89.6548C33.6029 90.3461 34.8921 90.675 36.1651 90.675C36.5749 90.675 36.9809 90.6289 37.3833 90.5616C37.0295 93.9198 38.5616 97.3103 41.5972 99.1064C42.9387 99.8962 44.4346 100.3 45.9593 100.3C46.7353 100.3 47.5187 100.195 48.2923 99.9833C49.2439 99.723 50.1295 99.3057 50.9305 98.7664C51.481 100.376 52.5821 101.807 54.1603 102.742C55.3324 103.432 56.6204 103.761 57.8921 103.761C60.4132 103.761 62.8745 102.471 64.2509 100.151L66.2402 96.7747L74.0613 100.47C74.9992 100.916 76.0044 101.142 77.0134 101.142C77.7956 101.142 78.5803 101.007 79.3402 100.736C81.0915 100.112 82.4953 98.8399 83.29 97.1546C83.8405 95.9899 84.0286 94.7493 83.9165 93.5523L85.8422 94.3893C86.7278 94.7717 87.6533 94.9511 88.5639 94.9511C91.2494 94.9511 93.8166 93.3829 94.9563 90.7671C95.0597 90.5317 95.112 90.2863 95.112 90.0297C95.117 89.9612 95.1817 89.7569 95.2278 89.6075C95.3648 89.1653 95.5492 88.5736 95.5729 87.8076C97.8149 87.4949 99.8677 86.0949 100.912 83.8964C101.851 81.9084 101.979 79.4072 101.248 77.3682C100.999 76.6756 100.649 76.0765 100.235 75.5471L107.81 72.2662C107.823 72.26 107.835 72.2512 107.848 72.2438C107.859 72.2388 107.872 72.2375 107.883 72.2313L121.138 65.7928C122.064 65.3381 122.452 64.2208 122.001 63.2929ZM34.3253 86.4312C32.5939 85.411 32.011 83.1777 33.0249 81.4562L39.0711 71.2211C39.7462 70.0789 40.9606 69.4449 42.2075 69.4449C42.839 69.4449 43.4793 69.6081 44.061 69.9494C45.7811 70.972 46.3566 73.2016 45.3427 74.9193L39.299 85.1557C38.2826 86.8771 36.0492 87.4476 34.3253 86.4312ZM47.3058 96.3748C45.9916 96.7336 44.6389 96.5579 43.4942 95.8841C41.0989 94.4666 40.3391 91.2878 41.7977 88.8003L49.6251 75.5645C50.6066 73.8942 52.3542 72.9575 54.1292 72.9575C54.9861 72.9575 55.8481 73.1755 56.6328 73.6351C59.0132 75.0538 59.7593 78.2214 58.2957 80.6964L50.4733 93.931C49.7608 95.1429 48.6361 96.0111 47.3058 96.3748ZM61.0335 98.2457C60.0146 99.9634 57.78 100.534 56.0598 99.52C54.326 98.4936 53.743 96.2602 54.7619 94.5401L60.8031 84.3049C61.4795 83.164 62.6914 82.5312 63.937 82.5312C64.5711 82.5312 65.2125 82.6956 65.798 83.0407C67.5144 84.062 68.0874 86.2867 67.071 88.0044L64.5362 92.3067C64.0105 92.4362 63.5434 92.785 63.2943 93.3131C63.0975 93.7304 63.0763 94.1813 63.1884 94.5949L61.0335 98.2457Z" fill="#2B77C0"/>
</svg>
