<svg width="125" height="125" viewBox="0 0 125 125" fill="none" xmlns="http://www.w3.org/2000/svg">
<path fill-rule="evenodd" clip-rule="evenodd" d="M91.7574 40.9938C91.5041 40.3828 91.2151 39.7873 90.893 39.2102L93.9132 36.19L93.9175 36.1859C94.3681 35.7353 94.3681 35.0047 93.9174 34.5542L88.8639 29.5005L88.8597 29.4963C88.4091 29.0457 87.6786 29.0457 87.228 29.4963L84.2037 32.5207C83.6266 32.1986 83.0313 31.9096 82.4203 31.6563C81.8168 31.4062 81.1929 31.1887 80.5511 31.0065V26.7306C80.5511 26.0934 80.0345 25.5768 79.3973 25.5768H72.2444C71.6072 25.5768 71.0906 26.0934 71.0906 26.7306V31.0064C70.4487 31.1887 69.8249 31.4061 69.2214 31.6563C68.6104 31.9095 68.0151 32.1985 67.438 32.5207L64.4179 29.5005L64.4137 29.4963C63.9631 29.0457 63.2326 29.0457 62.782 29.4963L57.7306 34.5479L57.7241 34.5541C57.2736 35.0047 57.2736 35.7353 57.7243 36.1858L60.7487 39.2102C60.4266 39.7873 60.1376 40.3828 59.8842 40.9938C59.6341 41.5972 59.4167 42.2209 59.2345 42.8627H54.9585C54.3213 42.8627 53.8047 43.3793 53.8047 44.0165V51.1694C53.8047 51.8066 54.3213 52.3232 54.9585 52.3232H59.2345C59.4167 52.965 59.6342 53.5888 59.8843 54.1923C60.1376 54.8032 60.4266 55.3985 60.7487 55.9757L57.7284 58.9959L57.7242 59.0001C57.2736 59.4507 57.2736 60.1812 57.7242 60.6318L62.7778 65.6854L62.782 65.6896C63.2326 66.1402 63.9631 66.1402 64.4137 65.6896L67.438 62.6653C68.0151 62.9874 68.6105 63.2764 69.2215 63.5297C69.825 63.7798 70.4488 63.9972 71.0906 64.1795V68.4553C71.0906 69.0925 71.6072 69.6091 72.2444 69.6091H79.3973C80.0345 69.6091 80.5511 69.0925 80.5511 68.4553V64.1795C81.1929 63.9972 81.8167 63.7798 82.4201 63.5296C83.0312 63.2764 83.6266 62.9873 84.2037 62.6653L87.2238 65.6854L87.228 65.6896C87.6786 66.1402 88.4091 66.1402 88.8597 65.6896L93.9132 60.636L93.9175 60.6318C94.3681 60.1813 94.3681 59.4507 93.9174 59.0002L90.893 55.9757C91.2151 55.3986 91.5041 54.8033 91.7573 54.1923C92.0075 53.5888 92.225 52.965 92.4072 52.3232H96.6832C97.3204 52.3232 97.837 51.8066 97.837 51.1694V44.0165C97.837 43.3793 97.3204 42.8627 96.6832 42.8627H92.4072C92.225 42.2209 92.0076 41.5972 91.7575 40.9938L91.7574 40.9938ZM75.8209 39.3613C78.0939 39.3613 80.1519 40.2828 81.6415 41.7724C83.1311 43.2621 84.0525 45.3201 84.0525 47.593C84.0525 49.866 83.1311 51.9239 81.6415 53.4135C80.1518 54.9031 78.0939 55.8246 75.8209 55.8246C73.548 55.8246 71.49 54.9032 70.0004 53.4135C68.5108 51.9239 67.5893 49.8659 67.5893 47.593C67.5893 45.32 68.5108 43.262 70.0004 41.7724C71.49 40.2828 73.548 39.3613 75.8209 39.3613Z" fill="#2B77C0"/>
<path fill-rule="evenodd" clip-rule="evenodd" d="M49.0489 70.3708C48.6517 70.2061 48.2425 70.0599 47.8225 69.9332V66.9369C47.8225 66.2997 47.3059 65.7831 46.6687 65.7831H41.2974C40.6602 65.7831 40.1436 66.2997 40.1436 66.9369V69.9332C39.7235 70.0599 39.3144 70.2061 38.9173 70.3708C38.5159 70.5372 38.1228 70.724 37.7395 70.9299L35.6244 68.8148L35.6203 68.8105C35.1697 68.3599 34.4391 68.3599 33.9886 68.8106L30.1948 72.6044L30.1905 72.6085C29.7399 73.0591 29.7399 73.7897 30.1906 74.2402L32.31 76.3596C32.1041 76.743 31.9173 77.1359 31.7509 77.5374C31.5863 77.9345 31.44 78.3436 31.3134 78.7636H28.3169C27.6797 78.7636 27.1631 79.2802 27.1631 79.9174V85.2887C27.1631 85.9259 27.6797 86.4425 28.3169 86.4425H31.3134C31.4401 86.8625 31.5863 87.2716 31.7509 87.6688C31.9173 88.0702 32.1041 88.4632 32.3099 88.8465L30.1948 90.9616L30.1905 90.9658C29.7399 91.4164 29.7399 92.147 30.1906 92.5975L33.9844 96.3913L33.9885 96.3956C34.4391 96.8461 35.1697 96.8461 35.6202 96.3955L37.7395 94.2762C38.1228 94.4821 38.5159 94.6689 38.9173 94.8353C39.3145 94.9999 39.7236 95.1462 40.1436 95.2728V98.2692C40.1436 98.9064 40.6602 99.423 41.2974 99.423H46.6687C47.3059 99.423 47.8225 98.9064 47.8225 98.2692V95.2728C48.2425 95.1462 48.6517 94.9999 49.0488 94.8353C49.4502 94.6688 49.8433 94.4821 50.2266 94.2762L52.3417 96.3913L52.3458 96.3956C52.7964 96.8461 53.527 96.8462 53.9775 96.3955L57.7713 92.6017L57.7756 92.5975C58.2262 92.147 58.2262 91.4164 57.7755 90.9659L55.6562 88.8465C55.862 88.4632 56.0488 88.0702 56.2152 87.6688C56.3798 87.2716 56.526 86.8625 56.6527 86.4425H59.6492C60.2864 86.4425 60.8031 85.9259 60.8031 85.2887V79.9174C60.8031 79.2802 60.2864 78.7636 59.6492 78.7636H56.6528C56.5261 78.3436 56.3799 77.9345 56.2153 77.5375C56.0488 77.136 55.8621 76.7429 55.6562 76.3596L57.7713 74.2444L57.7756 74.2403C58.2262 73.7897 58.2262 73.0591 57.7755 72.6086L53.9817 68.8148L53.9775 68.8105C53.527 68.3599 52.7964 68.3599 52.3459 68.8106L50.2266 70.9299C49.8433 70.724 49.4503 70.5372 49.0489 70.3708ZM39.4091 78.0291C40.5797 76.8585 42.1969 76.1343 43.9831 76.1343C45.7693 76.1343 47.3865 76.8585 48.5571 78.0291C49.7277 79.1997 50.4519 80.817 50.4519 82.6031C50.4519 84.3891 49.7277 86.0065 48.5571 87.1771C47.3865 88.3477 45.7693 89.0718 43.9831 89.0718C42.1969 89.0718 40.5797 88.3478 39.4091 87.1771C38.2384 86.0065 37.5143 84.3893 37.5143 82.6031C37.5143 80.817 38.2384 79.1997 39.4091 78.0291Z" fill="#2B77C0"/>
<path fill-rule="evenodd" clip-rule="evenodd" d="M62.5 0C97.0178 0 125 27.9822 125 62.5C125 97.0178 97.0178 125 62.5 125C27.9822 125 0 97.0178 0 62.5C0 27.9822 27.9822 0 62.5 0ZM62.5 6.92302C93.1943 6.92302 118.077 31.8057 118.077 62.4999C118.077 93.1943 93.1942 118.077 62.5 118.077C31.8057 118.077 6.92308 93.1941 6.92308 62.4999C6.92308 31.8056 31.8058 6.92302 62.5 6.92302Z" fill="#2B77C0"/>
</svg>
