<svg width="31" height="30" viewBox="0 0 31 30" fill="none" xmlns="http://www.w3.org/2000/svg">
<path fill-rule="evenodd" clip-rule="evenodd" d="M30.326 15C30.326 23.2838 23.6098 30 15.326 30C7.0423 30 0.32605 23.2838 0.32605 15C0.32605 6.71625 7.0423 0 15.326 0C23.6098 0 30.326 6.71625 30.326 15ZM15.8636 11.0738C14.4048 11.68 11.4886 12.9362 7.11605 14.8413C6.40605 15.1237 6.03355 15.4 5.9998 15.67C5.9423 16.1275 6.5148 16.3075 7.2923 16.5513C7.39855 16.585 7.50855 16.6187 7.62105 16.6562C8.3873 16.905 9.4173 17.1962 9.9523 17.2075C10.4385 17.2175 10.9811 17.0175 11.5798 16.6075C15.6648 13.8488 17.7736 12.455 17.906 12.425C17.9998 12.4037 18.1298 12.3762 18.2173 12.455C18.3048 12.5325 18.2961 12.68 18.2873 12.72C18.2298 12.9612 15.9873 15.0475 14.8248 16.1275C14.4623 16.4638 14.206 16.7025 14.1536 16.7575C14.036 16.8787 13.916 16.995 13.801 17.1063C13.0885 17.7913 12.556 18.3062 13.831 19.1462C14.4436 19.55 14.9335 19.8838 15.4223 20.2163C15.956 20.58 16.4886 20.9425 17.1786 21.395C17.3535 21.51 17.521 21.6287 17.6848 21.745C18.306 22.1887 18.8648 22.5862 19.5548 22.5237C19.9548 22.4862 20.3698 22.11 20.5798 20.9862C21.076 18.3287 22.0535 12.5738 22.2798 10.2013C22.2936 10.0043 22.2852 9.80636 22.2548 9.61125C22.2366 9.45366 22.1599 9.30866 22.0398 9.205C21.861 9.05875 21.5835 9.0275 21.4585 9.03C20.8948 9.04 20.0298 9.34125 15.8636 11.0738Z" fill="#2B77C0"/>
</svg>
