<svg width="50" height="50" viewBox="0 0 50 50" fill="none" xmlns="http://www.w3.org/2000/svg">
<path fill-rule="evenodd" clip-rule="evenodd" d="M0 25C0 38.8071 11.1929 50 25 50C38.8071 50 50 38.8071 50 25C50 11.1929 38.8071 0 25 0C11.1929 0 0 11.1929 0 25ZM20.4167 36.4583L20.842 30.0857L20.8417 30.0854L32.4343 19.624C32.943 19.1724 32.3232 18.9522 31.6478 19.3618L17.3409 28.3878L11.1611 26.4591C9.82656 26.0504 9.81698 25.1333 11.4607 24.4741L35.542 15.1884C36.6419 14.6891 37.7034 15.4526 37.2835 17.1359L33.1825 36.4616C32.8961 37.8349 32.0664 38.1633 30.9167 37.529L24.6695 32.9134L21.6667 35.8333C21.6572 35.8425 21.6478 35.8517 21.6384 35.8608C21.3026 36.1878 21.0247 36.4583 20.4167 36.4583Z" fill="white"/>
</svg>
