<svg width="30" height="29" viewBox="0 0 30 29" fill="none" xmlns="http://www.w3.org/2000/svg">
<path fill-rule="evenodd" clip-rule="evenodd" d="M0 14.2073C0 10.4393 1.58035 6.82562 4.3934 4.16123C7.20644 1.49684 11.0218 0 15 0C18.9782 0 22.7936 1.49684 25.6066 4.16123C28.4196 6.82562 30 10.4393 30 14.2073C30 17.9754 28.4196 21.589 25.6066 24.2534C22.7936 26.9178 18.9782 28.4147 15 28.4147C11.0218 28.4147 7.20644 26.9178 4.3934 24.2534C1.58035 21.589 0 17.9754 0 14.2073H0ZM14.144 20.2881L22.78 10.0626L21.22 8.88053L13.856 17.5963L8.64 13.4799L7.36 14.9348L14.144 20.29V20.2881Z" fill="#2B77C0"/>
</svg>
